# OBJ generated by ONSHAPE BY PTC INC, 1.198 Units = meters
mtllib Part Studio 1 - Part 1.mtl
g Part 1
v -0.1 -0.075 0.02 
v -0.1 -0.075 0 
v 0.1 -0.075 0 
v 0.1 -0.075 0.02 
v 0.1 0.075 0 
v 0.1 0.075 0.02 
v -0.1 0.075 0 
v -0.1 0.075 0.02 
v 0.09 0.02 0.02 
v 0.09 0.065 0.02 
v 0.045 0.065 0.02 
v -0.09 -0.02 0.02 
v -0.09 -0.065 0.02 
v -0.045 -0.065 0.02 
v 0.095 0.02 0.02 
v 0.095 0.07 0.02 
v 0.045 0.07 0.02 
v -0.095 -0.02 0.02 
v -0.095 -0.07 0.02 
v -0.045 -0.07 0.02 
v 0.045 0.0675 0.035 
v 0.045 0.0685 0.035 
v 0.093 0.02 0.035 
v 0.093 0.0685 0.035 
v 0.092 0.0675 0.035 
v 0.092 0.02 0.035 
v -0.045 -0.0675 0.035 
v -0.045 -0.0685 0.035 
v -0.093 -0.02 0.035 
v -0.093 -0.0685 0.035 
v -0.092 -0.0675 0.035 
v -0.092 -0.02 0.035 
vn 1.38778e-16 -1 0 
vn 1 0 0 
vn 0 1 0 
vn -1 0 0 
vn 0 0 -1 
vn 0 0 1 
vn -1 0 0 
vn -5.75371e-16 0.995037 0.0995037 
vn 0.991228 0 0.132164 
vn 0 -1 0 
vn -0.991228 0 0.132164 
vn 0 -0.986394 0.164399 
vn 1 0 0 
vn 0 0 1 
vn 5.75371e-16 -0.995037 0.0995037 
vn -0.991228 0 0.132164 
vn 0 1 0 
vn 0.991228 0 0.132164 
vn 0 0.986394 0.164399 
usemtl 0.615686_0.811765_0.929412_0.000000_0.000000
o mesh0
f 1//1 2//1 3//1 
f 3//1 4//1 1//1 
o mesh1
f 4//2 3//2 5//2 
f 5//2 6//2 4//2 
o mesh2
f 6//3 5//3 7//3 
f 7//3 8//3 6//3 
o mesh3
f 8//4 7//4 2//4 
f 2//4 1//4 8//4 
o mesh4
f 5//5 3//5 2//5 
f 2//5 7//5 5//5 
o mesh5
f 9//6 10//6 11//6 
f 12//6 13//6 11//6 
f 11//6 13//6 14//6 
f 4//6 15//6 14//6 
f 6//6 16//6 15//6 
f 11//6 14//6 9//6 
f 15//6 4//6 6//6 
f 14//6 15//6 9//6 
f 6//6 8//6 17//6 
f 8//6 18//6 12//6 
f 11//6 17//6 12//6 
f 12//6 17//6 8//6 
f 17//6 16//6 6//6 
f 1//6 19//6 18//6 
f 18//6 8//6 1//6 
f 1//6 4//6 20//6 
f 20//6 19//6 1//6 
f 14//6 20//6 4//6 
o mesh6
f 17//7 11//7 21//7 
f 21//7 22//7 17//7 
o mesh7
f 23//6 24//6 25//6 
f 22//6 21//6 25//6 
f 25//6 24//6 22//6 
f 25//6 26//6 23//6 
o mesh8
f 17//8 22//8 24//8 
f 24//8 16//8 17//8 
o mesh9
f 15//9 16//9 24//9 
f 24//9 23//9 15//9 
o mesh10
f 9//10 15//10 23//10 
f 23//10 26//10 9//10 
o mesh11
f 26//11 25//11 10//11 
f 10//11 9//11 26//11 
o mesh12
f 21//12 11//12 10//12 
f 10//12 25//12 21//12 
o mesh13
f 20//13 14//13 27//13 
f 27//13 28//13 20//13 
o mesh14
f 29//14 30//14 31//14 
f 28//14 27//14 31//14 
f 31//14 30//14 28//14 
f 31//14 32//14 29//14 
o mesh15
f 20//15 28//15 30//15 
f 30//15 19//15 20//15 
o mesh16
f 18//16 19//16 30//16 
f 30//16 29//16 18//16 
o mesh17
f 12//17 18//17 29//17 
f 29//17 32//17 12//17 
o mesh18
f 32//18 31//18 13//18 
f 13//18 12//18 32//18 
o mesh19
f 27//19 14//19 13//19 
f 13//19 31//19 27//19 
